<svg xmlns="http://www.w3.org/2000/svg" width="1em" height="1em" viewBox="0 0 24 24"><path fill="currentColor" d="m8.914 15.596l4.261-1.373q.385-.13.651-.397t.397-.651L15.6 8.909q.071-.232-.106-.406q-.178-.174-.407-.1l-4.262 1.374q-.384.13-.651.397q-.266.267-.397.651L8.4 15.091q-.071.232.106.406q.178.174.407.1m3.082-2.482q-.466 0-.788-.326q-.323-.327-.323-.794q0-.466.327-.788q.327-.323.793-.323q.467 0 .79.327q.322.327.322.793q0 .467-.327.79q-.327.321-.793.321M12.003 21q-1.867 0-3.51-.708q-1.643-.709-2.859-1.924t-1.925-2.856T3 12.003t.709-3.51Q4.417 6.85 5.63 5.634t2.857-1.925T11.997 3t3.51.709q1.643.708 2.859 1.922t1.925 2.857t.709 3.509t-.708 3.51t-1.924 2.859t-2.856 1.925t-3.509.709M12 20q3.344 0 5.672-2.328T20 12t-2.328-5.672T12 4T6.328 6.328T4 12t2.328 5.672T12 20m0-8"/></svg>