<svg xmlns="http://www.w3.org/2000/svg" width="1em" height="1em" viewBox="0 0 24 24"><path fill="currentColor" d="m12.744 11.95l1.525-.921l1.525.921q.131.062.24-.01q.108-.07.058-.207l-.417-1.737l1.339-1.157q.105-.087.068-.205t-.174-.143l-1.762-.156l-.69-1.631q-.05-.131-.187-.131t-.186.13l-.69 1.632l-1.762.155q-.137.026-.174.144t.068.205l1.339 1.157l-.418 1.737q-.05.136.059.208q.109.07.24.009m-3.591 4.512q-.69 0-1.153-.463t-.462-1.153V4.616q0-.691.462-1.153T9.154 3h10.23q.691 0 1.153.463T21 4.616v10.23q0 .69-.463 1.153t-1.153.463zm0-1h10.23q.27 0 .443-.173t.173-.443V4.616q0-.27-.173-.443T19.385 4H9.154q-.27 0-.442.173q-.173.173-.173.443v10.23q0 .27.173.443t.442.173M6.18 20.817q-.672.081-1.2-.323q-.527-.403-.608-1.075L3.144 9.706q-.08-.671.339-1.215q.419-.545 1.09-.612l.435-.02q.213-.017.377.12q.165.137.165.375q0 .183-.128.333t-.31.167l-.39.019q-.27.02-.424.221q-.154.202-.115.472l1.196 9.719q.038.269.23.423q.193.154.462.115l11.773-1.47q.214-.03.375.095t.193.339t-.095.362t-.338.18z"/></svg>