<svg xmlns="http://www.w3.org/2000/svg" width="1em" height="1em" viewBox="0 0 24 24"><path fill="currentColor" d="M3.5 20q-.213 0-.356-.144T3 19.499t.144-.356T3.5 19h17q.213 0 .356.144t.144.357t-.144.356T20.5 20zm.793-3.061Q4 16.648 4 16.231V13q0-.417.291-.708q.291-.292.707-.292t.709.292T6 13v3.23q0 .418-.291.709q-.291.292-.707.292t-.709-.292m4.654 0q-.293-.292-.293-.708V8q0-.417.29-.708Q9.237 7 9.652 7t.71.292q.293.291.293.708v8.23q0 .418-.291.709q-.291.292-.707.292t-.709-.292m4.673 0q-.293-.292-.293-.708V11q0-.417.291-.708q.291-.292.707-.292t.709.292t.293.708v5.23q0 .418-.291.709q-.291.292-.707.292t-.709-.292m4.673 0Q18 16.648 18 16.231V5q0-.417.291-.708q.291-.292.707-.292t.709.292T20 5v11.23q0 .418-.291.709q-.291.292-.707.292t-.709-.292"/></svg>