<svg xmlns="http://www.w3.org/2000/svg" width="1em" height="1em" viewBox="0 0 24 24"><path fill="currentColor" d="M9 17.73h6q.214 0 .357-.142t.143-.357t-.143-.357t-.357-.143H9q-.213 0-.357.143t-.143.357t.143.356t.357.144m0-2.616h6q.214 0 .357-.143t.143-.356t-.143-.357t-.357-.143H9q-.213 0-.357.143t-.143.357t.143.356t.357.144m3-7.739q-.396-.49-.759-.799q-.362-.309-1.041-.309q-.708 0-1.204.496Q8.5 7.262 8.5 7.97q0 1.229 1.071 2.166q1.071.938 1.888 1.68q.218.218.541.218t.54-.217l1.889-1.67q1.071-.95 1.071-2.179q0-.708-.496-1.204T13.8 6.27q-.679 0-1.041.309q-.363.308-.759.799M17.384 21H6.616q-.691 0-1.153-.462T5 19.385V4.615q0-.69.463-1.152T6.616 3h10.769q.69 0 1.153.463T19 4.616v14.769q0 .69-.462 1.153T17.384 21M6.615 20h10.77q.269 0 .442-.173t.173-.442V4.615q0-.269-.173-.442T17.385 4H6.615q-.269 0-.442.173T6 4.616v14.769q0 .269.173.442t.443.173M6 20V4z"/></svg>