<svg preserveAspectRatio="none" width="100%" height="100%" overflow="visible" style="display: block;" viewBox="0 0 17.8688 17.8305" fill="none" xmlns="http://www.w3.org/2000/svg">
<path id="Vector" d="M9.61283 8.95L11.1378 8.029L12.6628 8.95C12.7502 8.99133 12.8302 8.988 12.9028 8.94C12.9748 8.89333 12.9942 8.82433 12.9608 8.733L12.5438 6.996L13.8828 5.839C13.9528 5.781 13.9755 5.71267 13.9508 5.634C13.9262 5.55533 13.8682 5.50767 13.7768 5.491L12.0148 5.335L11.3248 3.704C11.2915 3.61667 11.2292 3.573 11.1378 3.573C11.0465 3.573 10.9845 3.61633 10.9518 3.703L10.2618 5.335L8.49983 5.49C8.40849 5.50733 8.35049 5.55533 8.32583 5.634C8.30116 5.71267 8.32383 5.781 8.39383 5.839L9.73283 6.996L9.31483 8.733C9.28149 8.82367 9.30116 8.893 9.37383 8.941C9.44649 8.98767 9.52549 8.99067 9.61283 8.95ZM6.02283 13.462C5.56283 13.462 5.17849 13.3077 4.86983 12.999C4.56116 12.6903 4.40716 12.306 4.40783 11.846V1.616C4.40783 1.15533 4.56183 0.771 4.86983 0.463C5.17783 0.155 5.56216 0.000666667 6.02283 0H16.2528C16.7135 0 17.0978 0.154333 17.4058 0.463C17.7138 0.771667 17.8682 1.156 17.8688 1.616V11.846C17.8688 12.306 17.7145 12.6903 17.4058 12.999C17.0972 13.3077 16.7128 13.462 16.2528 13.462H6.02283ZM6.02283 12.462H16.2528C16.4328 12.462 16.5805 12.4043 16.6958 12.289C16.8112 12.1737 16.8688 12.026 16.8688 11.846V1.616C16.8688 1.436 16.8112 1.28833 16.6958 1.173C16.5805 1.05767 16.4332 1 16.2538 1H6.02283C5.84283 1 5.69549 1.05767 5.58083 1.173C5.46549 1.28833 5.40782 1.436 5.40782 1.616V11.846C5.40782 12.026 5.46549 12.1737 5.58083 12.289C5.69616 12.4043 5.84349 12.462 6.02283 12.462ZM3.04883 17.817C2.60083 17.871 2.20083 17.7633 1.84883 17.494C1.49749 17.2253 1.29483 16.867 1.24083 16.419L0.0128257 6.706C-0.0405077 6.25867 0.0724923 5.85367 0.351826 5.491C0.631159 5.12767 0.994492 4.92367 1.44183 4.879L1.87683 4.859C2.01883 4.84767 2.14449 4.88767 2.25383 4.979C2.36383 5.07033 2.41883 5.19533 2.41883 5.354C2.41883 5.476 2.37616 5.587 2.29083 5.687C2.20549 5.787 2.10216 5.84267 1.98083 5.854L1.59083 5.873C1.41083 5.88633 1.26949 5.96 1.16683 6.094C1.06416 6.22867 1.02583 6.386 1.05183 6.566L2.24783 16.285C2.27316 16.4643 2.34983 16.6053 2.47783 16.708C2.60649 16.8107 2.76049 16.849 2.93983 16.823L14.7128 15.353C14.8555 15.333 14.9805 15.3647 15.0878 15.448C15.1952 15.5313 15.2595 15.6443 15.2808 15.787C15.3022 15.9297 15.2705 16.0503 15.1858 16.149C15.1012 16.2477 14.9885 16.3077 14.8478 16.329L3.04883 17.817Z" fill="var(--fill-0, #707070)"/>
</svg>
