<svg preserveAspectRatio="none" width="100%" height="100%" overflow="visible" style="display: block;" viewBox="0 0 18 16" fill="none" xmlns="http://www.w3.org/2000/svg">
<path id="Vector" d="M0.500007 16C0.358007 16 0.23934 15.952 0.144007 15.856C0.0486736 15.76 0.000673516 15.641 6.84931e-06 15.499C-0.000659817 15.357 0.0473402 15.2383 0.144007 15.143C0.240674 15.0477 0.35934 15 0.500007 15H17.5C17.642 15 17.7607 15.048 17.856 15.144C17.9513 15.24 17.9993 15.359 18 15.501C18.0007 15.643 17.9527 15.7617 17.856 15.857C17.7593 15.9523 17.6407 16 17.5 16H0.500007ZM1.29301 12.939C1.09767 12.745 1.00001 12.509 1.00001 12.231V9C1.00001 8.722 1.09701 8.486 1.29101 8.292C1.48501 8.09733 1.72067 8 1.99801 8C2.27534 8 2.51167 8.09733 2.70701 8.292C2.90234 8.48667 3.00001 8.72267 3.00001 9V12.23C3.00001 12.5087 2.90301 12.745 2.70901 12.939C2.51501 13.1337 2.27934 13.231 2.00201 13.231C1.72467 13.231 1.48834 13.1337 1.29301 12.939ZM5.94701 12.939C5.75167 12.7443 5.65401 12.5083 5.65401 12.231V4C5.65401 3.722 5.75067 3.486 5.94401 3.292C6.13934 3.09733 6.37534 3 6.65201 3C6.92867 3 7.16534 3.09733 7.36201 3.292C7.55734 3.486 7.65501 3.722 7.65501 4V12.23C7.65501 12.5087 7.55801 12.745 7.36401 12.939C7.17001 13.1337 6.93434 13.231 6.65701 13.231C6.37967 13.231 6.14334 13.1337 5.94801 12.939M10.621 12.939C10.4257 12.7443 10.328 12.5083 10.328 12.231V7C10.328 6.722 10.425 6.486 10.619 6.292C10.813 6.09733 11.0487 6 11.326 6C11.6033 6 11.8397 6.09733 12.035 6.292C12.2303 6.48667 12.328 6.72267 12.328 7V12.23C12.328 12.5087 12.231 12.745 12.037 12.939C11.843 13.1337 11.6073 13.231 11.33 13.231C11.0527 13.231 10.8163 13.1337 10.621 12.939ZM15.294 12.939C15.098 12.745 15 12.509 15 12.231V1C15 0.722 15.097 0.486 15.291 0.292C15.485 0.0973331 15.7207 0 15.998 0C16.2753 0 16.5117 0.0973331 16.707 0.292C16.9023 0.486666 17 0.722667 17 1V12.23C17 12.5087 16.903 12.745 16.709 12.939C16.515 13.1337 16.2793 13.231 16.002 13.231C15.7247 13.231 15.4883 13.1337 15.293 12.939" fill="var(--fill-0, #707070)"/>
</svg>
