<svg preserveAspectRatio="none" width="100%" height="100%" overflow="visible" style="display: block;" viewBox="0 0 14 18" fill="none" xmlns="http://www.w3.org/2000/svg">
<path id="Vector" d="M4 14.73H10C10.1427 14.73 10.2617 14.6827 10.357 14.588C10.4523 14.4933 10.5 14.3743 10.5 14.231C10.5 14.0877 10.4523 13.9687 10.357 13.874C10.2617 13.7793 10.1427 13.7317 10 13.731H4C3.858 13.731 3.739 13.7787 3.643 13.874C3.547 13.9693 3.49933 14.0883 3.5 14.231C3.50067 14.3737 3.54833 14.4923 3.643 14.587C3.73767 14.6817 3.85667 14.7297 4 14.731M4 12.115H10C10.1427 12.115 10.2617 12.0673 10.357 11.972C10.4523 11.8767 10.5 11.758 10.5 11.616C10.5 11.474 10.4523 11.355 10.357 11.259C10.2617 11.163 10.1427 11.1153 10 11.116H4C3.858 11.116 3.739 11.1637 3.643 11.259C3.547 11.3543 3.49933 11.4733 3.5 11.616C3.50067 11.7587 3.54833 11.8773 3.643 11.972C3.73767 12.0667 3.85667 12.1147 4 12.116M7 4.377C6.736 4.05033 6.483 3.784 6.241 3.578C5.99967 3.372 5.65267 3.269 5.2 3.269C4.728 3.269 4.32667 3.43433 3.996 3.765C3.66533 4.09633 3.5 4.498 3.5 4.97C3.5 5.78933 3.857 6.51133 4.571 7.136C5.285 7.76133 5.91433 8.32133 6.459 8.816C6.60433 8.96133 6.78467 9.034 7 9.034C7.21533 9.034 7.39533 8.96167 7.54 8.817L9.429 7.147C10.143 6.51367 10.5 5.78733 10.5 4.968C10.5 4.496 10.3347 4.09467 10.004 3.764C9.67333 3.43333 9.272 3.26867 8.8 3.27C8.34733 3.27 8.00033 3.373 7.759 3.579C7.517 3.78433 7.264 4.04967 7 4.377ZM12.384 18H1.616C1.15533 18 0.771 17.846 0.463 17.538C0.155 17.23 0.000666667 16.8457 0 16.385V1.615C0 1.155 0.154333 0.771 0.463 0.463C0.771666 0.155 1.156 0.000666667 1.616 0H12.385C12.845 0 13.2293 0.154333 13.538 0.463C13.8467 0.771667 14.0007 1.156 14 1.616V16.385C14 16.845 13.846 17.2293 13.538 17.538C13.23 17.8467 12.8453 18.0007 12.384 18ZM1.615 17H12.385C12.5643 17 12.7117 16.9423 12.827 16.827C12.9423 16.7117 13 16.5643 13 16.385V1.615C13 1.43567 12.9423 1.28833 12.827 1.173C12.7117 1.05767 12.5643 1 12.385 1H1.615C1.43567 1 1.28833 1.05767 1.173 1.173C1.05767 1.28833 1 1.436 1 1.616V16.385C1 16.5643 1.05767 16.7117 1.173 16.827C1.28833 16.9423 1.436 17 1.616 17" fill="var(--fill-0, #707070)"/>
</svg>
