<svg preserveAspectRatio="none" width="100%" height="100%" overflow="visible" style="display: block;" viewBox="0 0 13.9933 13.9933" fill="none" xmlns="http://www.w3.org/2000/svg">
<g id="Icon" clip-path="url(#clip0_134_856)">
<path id="Vector" d="M6.4136 2.74152C6.41348 2.66031 6.38931 2.58095 6.34413 2.51347C6.29895 2.44598 6.2348 2.39338 6.15976 2.36232C6.08473 2.33125 6.00217 2.32312 5.92251 2.33893C5.84285 2.35474 5.76967 2.39379 5.71218 2.45116L3.73913 4.42363C3.66299 4.50023 3.57239 4.56095 3.47261 4.60229C3.37282 4.64363 3.26583 4.66475 3.15782 4.66444H1.74916C1.59453 4.66444 1.44623 4.72587 1.33688 4.8352C1.22753 4.94455 1.16611 5.09285 1.16611 5.24749V8.74581C1.16611 8.90045 1.22753 9.04874 1.33688 9.15809C1.44623 9.26744 1.59453 9.32886 1.74916 9.32886H3.15782C3.26583 9.32855 3.37282 9.34967 3.47261 9.391C3.57239 9.43234 3.66299 9.49306 3.73913 9.56967L5.71159 11.5428C5.76909 11.6003 5.84238 11.6395 5.92219 11.6555C6.002 11.6714 6.08474 11.6632 6.15992 11.6321C6.2351 11.6009 6.29934 11.5482 6.3445 11.4804C6.38966 11.4127 6.41371 11.3332 6.4136 11.2518V2.74152Z" stroke="var(--stroke-0, #233F18)" stroke-width="1.99904" stroke-linecap="round" stroke-linejoin="round"/>
<path id="Vector_2" d="M9.32886 5.24749C9.70733 5.7521 9.91192 6.36587 9.91192 6.99665C9.91192 7.62743 9.70733 8.24119 9.32886 8.74581" stroke="var(--stroke-0, #233F18)" stroke-width="1.99904" stroke-linecap="round" stroke-linejoin="round"/>
<path id="Vector_3" d="M11.2903 10.7072C11.7776 10.2199 12.1641 9.64145 12.4277 9.00479C12.6915 8.36813 12.8273 7.68577 12.8273 6.99665C12.8273 6.30753 12.6915 5.62517 12.4277 4.98851C12.1641 4.35185 11.7776 3.77337 11.2903 3.2861" stroke="var(--stroke-0, #233F18)" stroke-width="1.99904" stroke-linecap="round" stroke-linejoin="round"/>
</g>
<defs>
<clipPath id="clip0_134_856">
<rect width="13.9933" height="13.9933" fill="white"/>
</clipPath>
</defs>
</svg>
