<svg preserveAspectRatio="none" width="100%" height="100%" overflow="visible" style="display: block;" viewBox="0 0 18.2778 18.2778" fill="none" xmlns="http://www.w3.org/2000/svg">
<path id="Vector" d="M18.2778 9.13889C18.2778 9.85993 17.6933 10.4444 16.9722 10.4444H10.4444V16.9722C10.4444 17.6933 9.85993 18.2778 9.13889 18.2778C8.41785 18.2778 7.83333 17.6933 7.83333 16.9722V10.4444H1.30556C0.584518 10.4444 0 9.85993 0 9.13889C0 8.41785 0.584517 7.83333 1.30556 7.83333H7.83333V1.30556C7.83333 0.584518 8.41785 0 9.13889 0C9.85993 0 10.4444 0.584517 10.4444 1.30556V7.83333H16.9722C17.6933 7.83333 18.2778 8.41785 18.2778 9.13889Z" fill="var(--fill-0, white)"/>
</svg>
